<mxfile host="app.diagrams.net" modified="2022-05-18T06:35:59.745Z" agent="5.0 (Windows NT 10.0; Win64; x64) AppleWebKit/537.36 (KHTML, like Gecko) Chrome/101.0.4951.67 Safari/537.36" etag="FKRS0KDt1Z0ksdJHQ_-p" version="18.0.7" type="github">
  <diagram id="kgpKYQtTHZ0yAKxKKP6v" name="Page-1">
    <mxGraphModel dx="1160" dy="641" grid="1" gridSize="10" guides="1" tooltips="1" connect="1" arrows="1" fold="1" page="1" pageScale="1" pageWidth="850" pageHeight="1100" math="0" shadow="0">
      <root>
        <mxCell id="0" />
        <mxCell id="1" parent="0" />
        <mxCell id="3nuBFxr9cyL0pnOWT2aG-1" value="LocalSDK" style="shape=umlLifeline;perimeter=lifelinePerimeter;container=1;collapsible=0;recursiveResize=0;rounded=0;shadow=0;strokeWidth=1;" parent="1" vertex="1">
          <mxGeometry x="95" y="40" width="110" height="300" as="geometry" />
        </mxCell>
        <mxCell id="3nuBFxr9cyL0pnOWT2aG-3" value="dispatch" style="verticalAlign=bottom;startArrow=oval;endArrow=block;startSize=8;shadow=0;strokeWidth=1;" parent="3nuBFxr9cyL0pnOWT2aG-1" edge="1">
          <mxGeometry relative="1" as="geometry">
            <mxPoint x="-15" y="70" as="sourcePoint" />
            <mxPoint x="55" y="70" as="targetPoint" />
          </mxGeometry>
        </mxCell>
        <mxCell id="Ev-nZFd2LsLtF0jfBMwJ-7" value="" style="points=[];perimeter=orthogonalPerimeter;rounded=0;shadow=0;strokeWidth=1;" vertex="1" parent="3nuBFxr9cyL0pnOWT2aG-1">
          <mxGeometry x="55" y="140" width="10" height="32.5" as="geometry" />
        </mxCell>
        <mxCell id="3nuBFxr9cyL0pnOWT2aG-5" value="ChannelID Provider" style="shape=umlLifeline;perimeter=lifelinePerimeter;container=1;collapsible=0;recursiveResize=0;rounded=0;shadow=0;strokeWidth=1;" parent="1" vertex="1">
          <mxGeometry x="325" y="40" width="110" height="300" as="geometry" />
        </mxCell>
        <mxCell id="3nuBFxr9cyL0pnOWT2aG-4" value="" style="points=[];perimeter=orthogonalPerimeter;rounded=0;shadow=0;strokeWidth=1;" parent="3nuBFxr9cyL0pnOWT2aG-5" vertex="1">
          <mxGeometry x="55" y="115" width="10" height="70" as="geometry" />
        </mxCell>
        <mxCell id="Ev-nZFd2LsLtF0jfBMwJ-5" value="" style="points=[];perimeter=orthogonalPerimeter;rounded=0;shadow=0;strokeWidth=1;" vertex="1" parent="3nuBFxr9cyL0pnOWT2aG-5">
          <mxGeometry x="45" y="140" width="10" height="32.5" as="geometry" />
        </mxCell>
        <mxCell id="3nuBFxr9cyL0pnOWT2aG-8" value="启动游戏" style="verticalAlign=bottom;endArrow=block;entryX=-0.033;entryY=-0.004;shadow=0;strokeWidth=1;entryDx=0;entryDy=0;entryPerimeter=0;" parent="1" target="Ev-nZFd2LsLtF0jfBMwJ-13" edge="1">
          <mxGeometry x="-0.4565" relative="1" as="geometry">
            <mxPoint x="150" y="110" as="sourcePoint" />
            <mxPoint as="offset" />
          </mxGeometry>
        </mxCell>
        <mxCell id="Ev-nZFd2LsLtF0jfBMwJ-1" value="GameService/Jar" style="shape=umlLifeline;perimeter=lifelinePerimeter;container=1;collapsible=0;recursiveResize=0;rounded=0;shadow=0;strokeWidth=1;" vertex="1" parent="1">
          <mxGeometry x="565" y="40" width="110" height="300" as="geometry" />
        </mxCell>
        <mxCell id="3nuBFxr9cyL0pnOWT2aG-6" value="" style="points=[];perimeter=orthogonalPerimeter;rounded=0;shadow=0;strokeWidth=1;" parent="Ev-nZFd2LsLtF0jfBMwJ-1" vertex="1">
          <mxGeometry x="45" y="95" width="10" height="110" as="geometry" />
        </mxCell>
        <mxCell id="Ev-nZFd2LsLtF0jfBMwJ-3" value="" style="points=[];perimeter=orthogonalPerimeter;rounded=0;shadow=0;strokeWidth=1;" vertex="1" parent="Ev-nZFd2LsLtF0jfBMwJ-1">
          <mxGeometry x="35" y="110" width="10" height="80" as="geometry" />
        </mxCell>
        <mxCell id="3nuBFxr9cyL0pnOWT2aG-10" value="return" style="verticalAlign=bottom;endArrow=open;dashed=1;endSize=8;exitX=0.938;exitY=0.973;shadow=0;strokeWidth=1;exitDx=0;exitDy=0;exitPerimeter=0;" parent="1" source="3nuBFxr9cyL0pnOWT2aG-4" target="Ev-nZFd2LsLtF0jfBMwJ-3" edge="1">
          <mxGeometry relative="1" as="geometry">
            <mxPoint x="585" y="209" as="targetPoint" />
          </mxGeometry>
        </mxCell>
        <mxCell id="3nuBFxr9cyL0pnOWT2aG-9" value="包名" style="verticalAlign=bottom;endArrow=block;entryX=1;entryY=0;shadow=0;strokeWidth=1;" parent="1" source="Ev-nZFd2LsLtF0jfBMwJ-3" target="3nuBFxr9cyL0pnOWT2aG-4" edge="1">
          <mxGeometry relative="1" as="geometry">
            <mxPoint x="230" y="200" as="sourcePoint" />
          </mxGeometry>
        </mxCell>
        <mxCell id="Ev-nZFd2LsLtF0jfBMwJ-4" value="获取渠道号" style="text;html=1;align=center;verticalAlign=middle;resizable=0;points=[];autosize=1;strokeColor=none;fillColor=none;" vertex="1" parent="1">
          <mxGeometry x="520" y="200" width="80" height="20" as="geometry" />
        </mxCell>
        <mxCell id="Ev-nZFd2LsLtF0jfBMwJ-6" style="edgeStyle=orthogonalEdgeStyle;rounded=0;orthogonalLoop=1;jettySize=auto;html=1;entryX=0.852;entryY=0.028;entryDx=0;entryDy=0;entryPerimeter=0;" edge="1" parent="1" source="Ev-nZFd2LsLtF0jfBMwJ-5" target="Ev-nZFd2LsLtF0jfBMwJ-7">
          <mxGeometry relative="1" as="geometry">
            <Array as="points">
              <mxPoint x="270" y="181" />
              <mxPoint x="270" y="181" />
            </Array>
          </mxGeometry>
        </mxCell>
        <mxCell id="Ev-nZFd2LsLtF0jfBMwJ-8" style="edgeStyle=orthogonalEdgeStyle;rounded=0;orthogonalLoop=1;jettySize=auto;html=1;entryX=0.11;entryY=0.942;entryDx=0;entryDy=0;entryPerimeter=0;dashed=1;" edge="1" parent="1" source="Ev-nZFd2LsLtF0jfBMwJ-7" target="Ev-nZFd2LsLtF0jfBMwJ-5">
          <mxGeometry relative="1" as="geometry">
            <Array as="points">
              <mxPoint x="265" y="210" />
            </Array>
          </mxGeometry>
        </mxCell>
        <mxCell id="Ev-nZFd2LsLtF0jfBMwJ-9" value="获取渠道号（cmd=xxxx)&lt;br&gt;" style="text;html=1;align=center;verticalAlign=middle;resizable=0;points=[];autosize=1;strokeColor=none;fillColor=none;" vertex="1" parent="1">
          <mxGeometry x="190" y="160" width="150" height="20" as="geometry" />
        </mxCell>
        <mxCell id="Ev-nZFd2LsLtF0jfBMwJ-12" value="Game" style="shape=umlLifeline;perimeter=lifelinePerimeter;container=1;collapsible=0;recursiveResize=0;rounded=0;shadow=0;strokeWidth=1;" vertex="1" parent="1">
          <mxGeometry x="790" y="40" width="110" height="300" as="geometry" />
        </mxCell>
        <mxCell id="Ev-nZFd2LsLtF0jfBMwJ-13" value="" style="points=[];perimeter=orthogonalPerimeter;rounded=0;shadow=0;strokeWidth=1;" vertex="1" parent="Ev-nZFd2LsLtF0jfBMwJ-12">
          <mxGeometry x="45" y="70" width="10" height="160" as="geometry" />
        </mxCell>
        <mxCell id="Ev-nZFd2LsLtF0jfBMwJ-14" value="" style="points=[];perimeter=orthogonalPerimeter;rounded=0;shadow=0;strokeWidth=1;" vertex="1" parent="Ev-nZFd2LsLtF0jfBMwJ-12">
          <mxGeometry x="35" y="100" width="10" height="140" as="geometry" />
        </mxCell>
        <mxCell id="Ev-nZFd2LsLtF0jfBMwJ-15" style="edgeStyle=orthogonalEdgeStyle;rounded=0;orthogonalLoop=1;jettySize=auto;html=1;entryX=1.057;entryY=0.061;entryDx=0;entryDy=0;entryPerimeter=0;" edge="1" parent="1" source="Ev-nZFd2LsLtF0jfBMwJ-14" target="3nuBFxr9cyL0pnOWT2aG-6">
          <mxGeometry relative="1" as="geometry">
            <mxPoint x="623" y="160" as="targetPoint" />
            <Array as="points">
              <mxPoint x="623" y="140" />
              <mxPoint x="623" y="142" />
            </Array>
          </mxGeometry>
        </mxCell>
        <mxCell id="Ev-nZFd2LsLtF0jfBMwJ-17" value="初始化" style="edgeLabel;html=1;align=center;verticalAlign=middle;resizable=0;points=[];" vertex="1" connectable="0" parent="Ev-nZFd2LsLtF0jfBMwJ-15">
          <mxGeometry x="-0.1197" y="-2" relative="1" as="geometry">
            <mxPoint y="-8" as="offset" />
          </mxGeometry>
        </mxCell>
        <mxCell id="Ev-nZFd2LsLtF0jfBMwJ-16" style="edgeStyle=orthogonalEdgeStyle;rounded=0;orthogonalLoop=1;jettySize=auto;html=1;entryX=0.167;entryY=0.736;entryDx=0;entryDy=0;entryPerimeter=0;dashed=1;" edge="1" parent="1" source="3nuBFxr9cyL0pnOWT2aG-6" target="Ev-nZFd2LsLtF0jfBMwJ-14">
          <mxGeometry relative="1" as="geometry">
            <Array as="points">
              <mxPoint x="670" y="243" />
              <mxPoint x="670" y="243" />
            </Array>
          </mxGeometry>
        </mxCell>
        <mxCell id="Ev-nZFd2LsLtF0jfBMwJ-18" value="返回结果" style="edgeLabel;html=1;align=center;verticalAlign=middle;resizable=0;points=[];" vertex="1" connectable="0" parent="Ev-nZFd2LsLtF0jfBMwJ-16">
          <mxGeometry x="0.1115" y="1" relative="1" as="geometry">
            <mxPoint x="-5" y="-12" as="offset" />
          </mxGeometry>
        </mxCell>
      </root>
    </mxGraphModel>
  </diagram>
</mxfile>
